<svg id="Layer_1" version="1.1" xmlns="http://www.w3.org/2000/svg" xmlns:xlink="http://www.w3.org/1999/xlink" x="0px" y="0px" width="444px" height="578px" viewBox="0 0 444 578" enable-background="new 0 0 444 578" xml:space="preserve">
	<g>
		<g>
			<path opacity="0.3" d="M436.1,284.287      c-31.679-18.168-62.007-38.726-87.868-64.304c-0.003-0.003-0.003-0.006-0.003-0.006c-1.897-4.335-3.792-8.67-5.687-13      c-1.854-2.781-9.544-22.214-11.087-30.078c-2.558-13.035-7.902-24.173-15.043-34.438c-14.991-21.542-8.966-37.771-0.621-63.499      C320.319,65,321.847,57.828,326.75,39.5c6.222-23.255,1.75-27.5,1.75-27.5s-1.25-6.771-24,5c-11.597,6-23.555,12.311-37.75,20.5      c4-41.25,5.194-37.15-40.75-19.75c-10.988,4.162-82.245,32.348-123.497,64.239C41.808,128.912-1.07,187.823,4.794,268.568      c7.095,97.713,41.75,183.27,99.871,261.035c37.514,44.594,24.405,31.572,37.514,44.594c0.299-5.618,0.596-11.242,0.896-16.866      c-0.011-0.147-0.02-0.296-0.031-0.443c2.149-14.553,4.258-29.124,6.517-43.658c10.974-70.646,33.275-134.535,102.24-170.406      c36.08-10.303,72.34-8.593,108.666-1.532c26.705,5.412,44.625-1.032,64.2-19.958C431.742,309.002,444.667,293.333,436.1,284.287z"></path>
			<path opacity="0.1" d="M315,149.57c0,0-87.168,10.584-151.826,47.499      c-0.386-0.663-2.25,0.567-5.934,3.502C137.524,212.608,120.331,227.257,109,245c-2.204,3.451-4.233,7.032-6.101,10.729      c-31.049,51.838-27.396,119.397-26.805,186.328c3.396,51.069,0.879,35.038,3.396,51.069c3.625-27.264,7.767-52.36,12.22-75.421      c6.917,39.794,18.163,78.396,29.214,109.606c19.832,47.185,12.234,32.845,19.832,47.185C84.917,298,315,149.57,315,149.57z"></path>
			<path opacity="0.1" d="M256.459,20.213      c-2.943,42.179-22.854,60.646-67.781,65.571C203.368,50.182,214.424,39.271,256.459,20.213z"></path>
			<path opacity="0.1" d="M319.459,20.213      c-2.943,42.179-7.854,58.646-52.781,63.571C281.368,48.182,277.424,39.271,319.459,20.213z"></path>
		</g>
	</g>
</svg>
